<svg width="345" height="701" viewBox="0 0 345 701" fill="none" xmlns="http://www.w3.org/2000/svg">
<g clip-path="url(#clip0_159_7597)">
<path d="M344.957 285.106C344.957 286.024 344.213 286.768 343.295 286.768L340.801 286.768L340.801 204.478L343.295 204.478C344.213 204.478 344.957 205.222 344.957 206.141L344.957 285.106Z" fill="black"/>
<path opacity="0.76" d="M344.957 285.106C344.957 286.024 344.213 286.768 343.295 286.768L340.801 286.768L340.801 204.478L343.295 204.478C344.213 204.478 344.957 205.222 344.957 206.141L344.957 285.106Z" fill="url(#paint0_linear_159_7597)"/>
<path d="M344.957 285.106C344.957 286.024 344.213 286.768 343.295 286.768L340.801 286.768L340.801 204.478L343.295 204.478C344.213 204.478 344.957 205.222 344.957 206.141L344.957 285.106Z" fill="url(#paint1_linear_159_7597)"/>
<path opacity="0.48" d="M344.957 285.106C344.957 286.024 344.213 286.768 343.295 286.768L340.801 286.768L340.801 204.478L343.295 204.478C344.213 204.478 344.957 205.222 344.957 206.141L344.957 285.106Z" fill="url(#paint2_linear_159_7597)"/>
<g filter="url(#filter0_f_159_7597)">
<path d="M344.125 207.387C344.125 207.617 343.939 207.803 343.709 207.803V207.803C343.48 207.803 343.294 207.617 343.294 207.387L343.294 206.14L344.125 206.14L344.125 207.387Z" fill="white"/>
</g>
<g filter="url(#filter1_f_159_7597)">
<path d="M344.125 285.105L343.294 285.105L343.294 206.556C343.294 206.326 343.48 206.14 343.709 206.14V206.14C343.939 206.14 344.125 206.326 344.125 206.556L344.125 285.105Z" fill="white" fill-opacity="0.8"/>
</g>
<g filter="url(#filter2_f_159_7597)">
<path d="M344.957 283.443L344.126 283.443L344.126 204.894C344.126 204.664 344.312 204.478 344.541 204.478V204.478C344.771 204.478 344.957 204.664 344.957 204.894L344.957 283.443Z" fill="#61605D"/>
</g>
</g>
<g clip-path="url(#clip1_159_7597)">
<path d="M0 125.513C0 124.594 0.744292 123.85 1.66242 123.85H4.15606V149.618H1.66242C0.744292 149.618 0 148.873 0 147.955V125.513Z" fill="black"/>
<path opacity="0.76" d="M0 125.513C0 124.594 0.744292 123.85 1.66242 123.85H4.15606V149.618H1.66242C0.744292 149.618 0 148.873 0 147.955V125.513Z" fill="url(#paint3_linear_159_7597)"/>
<path d="M0 125.513C0 124.594 0.744292 123.85 1.66242 123.85H4.15606V149.618H1.66242C0.744292 149.618 0 148.873 0 147.955V125.513Z" fill="url(#paint4_linear_159_7597)"/>
<path opacity="0.48" d="M0 125.513C0 124.594 0.744292 123.85 1.66242 123.85H4.15606V149.618H1.66242C0.744292 149.618 0 148.873 0 147.955V125.513Z" fill="url(#paint5_linear_159_7597)"/>
<g filter="url(#filter3_f_159_7597)">
<path d="M0.832031 125.097C0.832031 124.868 1.0181 124.682 1.24764 124.682V124.682C1.47717 124.682 1.66324 124.868 1.66324 125.097V126.344H0.832031V125.097Z" fill="white"/>
</g>
<g filter="url(#filter4_f_159_7597)">
<path d="M0.832031 124.682H1.66324V148.371C1.66324 148.601 1.47717 148.787 1.24764 148.787V148.787C1.0181 148.787 0.832031 148.601 0.832031 148.371V124.682Z" fill="white" fill-opacity="0.8"/>
</g>
<g filter="url(#filter5_f_159_7597)">
<path d="M0 123.019H0.831212V150.865C0.831212 151.094 0.645139 151.28 0.415606 151.28V151.28C0.186073 151.28 0 151.094 0 150.865V123.019Z" fill="#61605D"/>
</g>
</g>
<g clip-path="url(#clip2_159_7597)">
<path d="M0 176.217C0 175.298 0.744292 174.554 1.66242 174.554H4.15606V221.102H1.66242C0.744292 221.102 0 220.358 0 219.44V176.217Z" fill="black"/>
<path opacity="0.76" d="M0 176.217C0 175.298 0.744292 174.554 1.66242 174.554H4.15606V221.102H1.66242C0.744292 221.102 0 220.358 0 219.44V176.217Z" fill="url(#paint6_linear_159_7597)"/>
<path d="M0 176.217C0 175.298 0.744292 174.554 1.66242 174.554H4.15606V221.102H1.66242C0.744292 221.102 0 220.358 0 219.44V176.217Z" fill="url(#paint7_linear_159_7597)"/>
<path opacity="0.48" d="M0 176.217C0 175.298 0.744292 174.554 1.66242 174.554H4.15606V221.102H1.66242C0.744292 221.102 0 220.358 0 219.44V176.217Z" fill="url(#paint8_linear_159_7597)"/>
<g filter="url(#filter6_f_159_7597)">
<path d="M0.832031 175.801C0.832031 175.572 1.0181 175.386 1.24764 175.386V175.386C1.47717 175.386 1.66324 175.572 1.66324 175.801V177.048H0.832031V175.801Z" fill="white"/>
</g>
<g filter="url(#filter7_f_159_7597)">
<path d="M0.832031 176.217H1.66324V219.855C1.66324 220.085 1.47717 220.271 1.24764 220.271V220.271C1.0181 220.271 0.832031 220.085 0.832031 219.855V176.217Z" fill="white" fill-opacity="0.8"/>
</g>
<g filter="url(#filter8_f_159_7597)">
<path d="M0 174.554H0.831212V222.349C0.831212 222.578 0.645139 222.764 0.415606 222.764V222.764C0.186073 222.764 0 222.578 0 222.349V174.554Z" fill="#61605D"/>
</g>
</g>
<g clip-path="url(#clip3_159_7597)">
<path d="M0 236.064C0 235.146 0.744292 234.402 1.66242 234.402H4.15606V280.95H1.66242C0.744292 280.95 0 280.205 0 279.287V236.064Z" fill="black"/>
<path opacity="0.76" d="M0 236.064C0 235.146 0.744292 234.402 1.66242 234.402H4.15606V280.95H1.66242C0.744292 280.95 0 280.205 0 279.287V236.064Z" fill="url(#paint9_linear_159_7597)"/>
<path d="M0 236.064C0 235.146 0.744292 234.402 1.66242 234.402H4.15606V280.95H1.66242C0.744292 280.95 0 280.205 0 279.287V236.064Z" fill="url(#paint10_linear_159_7597)"/>
<path opacity="0.48" d="M0 236.064C0 235.146 0.744292 234.402 1.66242 234.402H4.15606V280.95H1.66242C0.744292 280.95 0 280.205 0 279.287V236.064Z" fill="url(#paint11_linear_159_7597)"/>
<g filter="url(#filter9_f_159_7597)">
<path d="M0.832031 235.649C0.832031 235.419 1.0181 235.233 1.24764 235.233V235.233C1.47717 235.233 1.66324 235.419 1.66324 235.649V236.895H0.832031V235.649Z" fill="white"/>
</g>
<g filter="url(#filter10_f_159_7597)">
<path d="M0.832031 236.064H1.66324V279.703C1.66324 279.932 1.47717 280.118 1.24764 280.118V280.118C1.0181 280.118 0.832031 279.932 0.832031 279.703V236.064Z" fill="white" fill-opacity="0.8"/>
</g>
<g filter="url(#filter11_f_159_7597)">
<path d="M0 234.402H0.831212V282.197C0.831212 282.426 0.645139 282.612 0.415606 282.612V282.612C0.186073 282.612 0 282.426 0 282.197V234.402Z" fill="#61605D"/>
</g>
</g>
<g clip-path="url(#clip4_159_7597)">
<rect x="2.49609" width="339.966" height="700.711" rx="51.5351" fill="black"/>
<g filter="url(#filter12_f_159_7597)">
<rect x="3.74291" y="1.24682" width="337.472" height="698.218" rx="50.2883" stroke="#A0A0A0" stroke-width="2.49364"/>
</g>
<g filter="url(#filter13_f_159_7597)">
<rect x="2.9117" y="0.415606" width="339.134" height="699.88" rx="51.1195" stroke="#181818" stroke-width="0.831212"/>
</g>
<g filter="url(#filter14_f_159_7597)">
<rect x="7.06795" y="4.57186" width="330.822" height="690.737" rx="51.1195" stroke="white" stroke-width="0.831212"/>
</g>
<rect x="7.31423" y="4.82106" width="330.324" height="690.238" rx="51.7014" stroke="white" stroke-width="0.332485"/>
<rect x="266.82" width="4.98727" height="3.32485" fill="url(#paint12_linear_159_7597)"/>
<rect x="2.49609" y="72.3154" width="4.98727" height="3.32485" transform="rotate(-90 2.49609 72.3154)" fill="url(#paint13_linear_159_7597)"/>
<rect x="2.49609" y="628.396" width="3.32485" height="4.98727" fill="url(#paint14_linear_159_7597)"/>
<rect x="54.8594" y="697.387" width="4.15606" height="3.32485" fill="url(#paint15_linear_159_7597)"/>
<rect x="339.137" y="628.396" width="3.32485" height="4.98727" fill="url(#paint16_linear_159_7597)"/>
</g>
<g clip-path="url(#clip5_159_7597)">
<rect x="5.82031" y="3.32471" width="333.316" height="694.062" rx="48.2103" fill="#000100"/>
<g filter="url(#filter15_f_159_7597)">
<rect x="7.48274" y="4.98713" width="329.991" height="690.737" rx="46.5479" stroke="url(#paint17_radial_159_7597)" stroke-width="3.32485"/>
</g>
</g>
<g clip-path="url(#clip6_159_7597)">
<rect x="12.4688" y="9.97412" width="320.017" height="680.762" fill="white"/>
</g>
<rect x="126.344" y="19.9492" width="91.4333" height="25.7676" rx="12.8838" fill="#030303"/>
<circle cx="204.16" cy="32.9325" r="7.99644" fill="#0E0B0F"/>
<circle cx="204.161" cy="32.9322" r="4.44246" fill="#161424"/>
<circle cx="204.165" cy="32.9326" r="2.66548" fill="#0F0F2A"/>
<circle cx="204.162" cy="32.0443" r="0.888493" fill="#393752"/>
<path opacity="0.35" d="M283.259 27.8682H297.389C298.983 27.8682 300.275 29.1608 300.275 30.7549V34.9102C300.275 36.5042 298.983 37.7969 297.389 37.7969H283.259C281.665 37.7969 280.372 36.5042 280.372 34.9102V30.7549C280.372 29.1608 281.665 27.8682 283.259 27.8682Z" stroke="white" stroke-width="0.877"/>
<path opacity="0.4" d="M301.543 31.5859V35.0939C302.249 34.7968 302.708 34.1057 302.708 33.3399C302.708 32.5742 302.249 31.883 301.543 31.5859" fill="white"/>
<path d="M281.594 30.7547C281.594 29.8366 282.338 29.0923 283.256 29.0923H297.387C298.305 29.0923 299.049 29.8366 299.049 30.7547V34.9108C299.049 35.8289 298.305 36.5732 297.387 36.5732H283.256C282.338 36.5732 281.594 35.8289 281.594 34.9108V30.7547Z" fill="white"/>
<path d="M265.899 34.9813C267.08 33.9626 268.808 33.9625 269.988 34.9813C270.048 35.0361 270.082 35.1136 270.084 35.1952C270.086 35.2768 270.054 35.3557 269.997 35.413L268.148 37.3163C268.094 37.3722 268.02 37.4042 267.943 37.4042C267.866 37.4041 267.792 37.3722 267.738 37.3163L265.89 35.413C265.833 35.3557 265.802 35.2768 265.804 35.1952C265.805 35.1135 265.84 35.0361 265.899 34.9813ZM263.4 32.6337C265.943 30.2195 269.881 30.2196 272.424 32.6337C272.481 32.6902 272.514 32.7682 272.515 32.8495C272.515 32.931 272.484 33.0095 272.428 33.0673L271.359 34.1698C271.249 34.2819 271.072 34.2841 270.959 34.1747C270.124 33.4029 269.038 32.9754 267.911 32.9755C266.785 32.9759 265.7 33.4034 264.865 34.1747C264.752 34.284 264.575 34.282 264.465 34.1698L263.396 33.0673C263.34 33.0097 263.309 32.9317 263.31 32.8505C263.31 32.769 263.343 32.6903 263.4 32.6337ZM260.905 30.2909C264.805 26.476 270.957 26.4759 274.857 30.2909C274.914 30.3476 274.946 30.4249 274.946 30.5057C274.947 30.5865 274.916 30.6642 274.86 30.7216L273.79 31.8231C273.68 31.9361 273.502 31.9373 273.39 31.826C271.904 30.3843 269.932 29.5801 267.882 29.58C265.832 29.5799 263.859 30.3841 262.373 31.826C262.261 31.9375 262.082 31.9364 261.972 31.8231L260.902 30.7216C260.847 30.6642 260.816 30.5865 260.816 30.5057C260.817 30.4249 260.849 30.3475 260.905 30.2909Z" fill="white"/>
<path d="M248.347 29.9233C248.347 29.4643 248.719 29.0921 249.178 29.0921H250.01C250.469 29.0921 250.841 29.4643 250.841 29.9233V36.573C250.841 37.0321 250.469 37.4042 250.01 37.4042H249.178C248.719 37.4042 248.347 37.0321 248.347 36.573V29.9233Z" fill="white"/>
<path d="M252.503 28.2609C252.503 27.8018 252.875 27.4297 253.335 27.4297H254.166C254.625 27.4297 254.997 27.8018 254.997 28.2609V36.573C254.997 37.0321 254.625 37.4042 254.166 37.4042H253.335C252.875 37.4042 252.503 37.0321 252.503 36.573V28.2609Z" fill="white"/>
<path d="M244.191 32.8326C244.191 32.3735 244.563 32.0014 245.022 32.0014H245.854C246.313 32.0014 246.685 32.3735 246.685 32.8326V36.573C246.685 37.0321 246.313 37.4042 245.854 37.4042H245.022C244.563 37.4042 244.191 37.0321 244.191 36.573V32.8326Z" fill="white"/>
<path d="M240.035 34.9106C240.035 34.4515 240.407 34.0794 240.866 34.0794H241.698C242.157 34.0794 242.529 34.4515 242.529 34.9106V36.573C242.529 37.0321 242.157 37.4042 241.698 37.4042H240.866C240.407 37.4042 240.035 37.0321 240.035 36.573V34.9106Z" fill="white"/>
<path d="M63.979 27.9003C66.1042 27.9003 67.9533 29.4114 67.9533 32.9992V33.013C67.9533 36.3663 66.4422 38.3534 63.9376 38.3534C62.1092 38.3534 60.7431 37.2701 60.4257 35.7453L60.4119 35.6694H62.1644L62.1851 35.7384C62.4473 36.4353 63.0614 36.8906 63.9376 36.8906C65.5177 36.8906 66.1869 35.3451 66.2628 33.4408C66.2628 33.3649 66.2697 33.289 66.2697 33.2131H66.1317C65.7661 33.9997 64.8967 34.6965 63.5306 34.6965C61.6193 34.6965 60.2808 33.3028 60.2808 31.4123V31.3985C60.2808 29.3769 61.8194 27.9003 63.979 27.9003ZM63.9721 33.3304C65.0968 33.3304 65.9593 32.5162 65.9593 31.3916V31.3778C65.9593 30.2393 65.0968 29.3493 63.9928 29.3493C62.8958 29.3493 62.0195 30.2255 62.0195 31.3364V31.3502C62.0195 32.5024 62.8406 33.3304 63.9721 33.3304ZM70.4208 31.6538C69.7929 31.6538 69.3237 31.1708 69.3237 30.5636C69.3237 29.9495 69.7929 29.4734 70.4208 29.4734C71.0555 29.4734 71.5178 29.9495 71.5178 30.5636C71.5178 31.1708 71.0555 31.6538 70.4208 31.6538ZM70.4208 36.7733C69.7929 36.7733 69.3237 36.2973 69.3237 35.6832C69.3237 35.0691 69.7929 34.593 70.4208 34.593C71.0555 34.593 71.5178 35.0691 71.5178 35.6832C71.5178 36.2973 71.0555 36.7733 70.4208 36.7733ZM77.7181 38.105V36.1938H72.8469V34.7379C74.1371 32.4955 75.5516 30.2048 76.9039 28.1487H79.4223V34.7241H80.7608V36.1938H79.4223V38.105H77.7181ZM74.5028 34.7655H77.7457V29.57H77.6422C76.621 31.1294 75.4688 32.9716 74.5028 34.662V34.7655ZM84.2219 38.105V29.9012H84.1046L81.6276 31.6538V29.9771L84.2288 28.1487H86.002V38.105H84.2219Z" fill="white"/>
<defs>
<filter id="filter0_f_159_7597" x="342.462" y="205.309" width="2.49445" height="3.32502" filterUnits="userSpaceOnUse" color-interpolation-filters="sRGB">
<feFlood flood-opacity="0" result="BackgroundImageFix"/>
<feBlend mode="normal" in="SourceGraphic" in2="BackgroundImageFix" result="shape"/>
<feGaussianBlur stdDeviation="0.415606" result="effect1_foregroundBlur_159_7597"/>
</filter>
<filter id="filter1_f_159_7597" x="342.462" y="205.309" width="2.49445" height="80.6278" filterUnits="userSpaceOnUse" color-interpolation-filters="sRGB">
<feFlood flood-opacity="0" result="BackgroundImageFix"/>
<feBlend mode="normal" in="SourceGraphic" in2="BackgroundImageFix" result="shape"/>
<feGaussianBlur stdDeviation="0.415606" result="effect1_foregroundBlur_159_7597"/>
</filter>
<filter id="filter2_f_159_7597" x="342.463" y="202.816" width="4.15688" height="82.2902" filterUnits="userSpaceOnUse" color-interpolation-filters="sRGB">
<feFlood flood-opacity="0" result="BackgroundImageFix"/>
<feBlend mode="normal" in="SourceGraphic" in2="BackgroundImageFix" result="shape"/>
<feGaussianBlur stdDeviation="0.831212" result="effect1_foregroundBlur_159_7597"/>
</filter>
<filter id="filter3_f_159_7597" x="0.000819445" y="123.85" width="2.49445" height="3.32502" filterUnits="userSpaceOnUse" color-interpolation-filters="sRGB">
<feFlood flood-opacity="0" result="BackgroundImageFix"/>
<feBlend mode="normal" in="SourceGraphic" in2="BackgroundImageFix" result="shape"/>
<feGaussianBlur stdDeviation="0.415606" result="effect1_foregroundBlur_159_7597"/>
</filter>
<filter id="filter4_f_159_7597" x="0.000819445" y="123.85" width="2.49445" height="25.7674" filterUnits="userSpaceOnUse" color-interpolation-filters="sRGB">
<feFlood flood-opacity="0" result="BackgroundImageFix"/>
<feBlend mode="normal" in="SourceGraphic" in2="BackgroundImageFix" result="shape"/>
<feGaussianBlur stdDeviation="0.415606" result="effect1_foregroundBlur_159_7597"/>
</filter>
<filter id="filter5_f_159_7597" x="-1.66242" y="121.357" width="4.15688" height="31.5861" filterUnits="userSpaceOnUse" color-interpolation-filters="sRGB">
<feFlood flood-opacity="0" result="BackgroundImageFix"/>
<feBlend mode="normal" in="SourceGraphic" in2="BackgroundImageFix" result="shape"/>
<feGaussianBlur stdDeviation="0.831212" result="effect1_foregroundBlur_159_7597"/>
</filter>
<filter id="filter6_f_159_7597" x="0.000819445" y="174.555" width="2.49445" height="3.32502" filterUnits="userSpaceOnUse" color-interpolation-filters="sRGB">
<feFlood flood-opacity="0" result="BackgroundImageFix"/>
<feBlend mode="normal" in="SourceGraphic" in2="BackgroundImageFix" result="shape"/>
<feGaussianBlur stdDeviation="0.415606" result="effect1_foregroundBlur_159_7597"/>
</filter>
<filter id="filter7_f_159_7597" x="0.000819445" y="175.386" width="2.49445" height="45.7166" filterUnits="userSpaceOnUse" color-interpolation-filters="sRGB">
<feFlood flood-opacity="0" result="BackgroundImageFix"/>
<feBlend mode="normal" in="SourceGraphic" in2="BackgroundImageFix" result="shape"/>
<feGaussianBlur stdDeviation="0.415606" result="effect1_foregroundBlur_159_7597"/>
</filter>
<filter id="filter8_f_159_7597" x="-1.66242" y="172.892" width="4.15688" height="51.5353" filterUnits="userSpaceOnUse" color-interpolation-filters="sRGB">
<feFlood flood-opacity="0" result="BackgroundImageFix"/>
<feBlend mode="normal" in="SourceGraphic" in2="BackgroundImageFix" result="shape"/>
<feGaussianBlur stdDeviation="0.831212" result="effect1_foregroundBlur_159_7597"/>
</filter>
<filter id="filter9_f_159_7597" x="0.000819445" y="234.402" width="2.49445" height="3.32502" filterUnits="userSpaceOnUse" color-interpolation-filters="sRGB">
<feFlood flood-opacity="0" result="BackgroundImageFix"/>
<feBlend mode="normal" in="SourceGraphic" in2="BackgroundImageFix" result="shape"/>
<feGaussianBlur stdDeviation="0.415606" result="effect1_foregroundBlur_159_7597"/>
</filter>
<filter id="filter10_f_159_7597" x="0.000819445" y="235.233" width="2.49445" height="45.7166" filterUnits="userSpaceOnUse" color-interpolation-filters="sRGB">
<feFlood flood-opacity="0" result="BackgroundImageFix"/>
<feBlend mode="normal" in="SourceGraphic" in2="BackgroundImageFix" result="shape"/>
<feGaussianBlur stdDeviation="0.415606" result="effect1_foregroundBlur_159_7597"/>
</filter>
<filter id="filter11_f_159_7597" x="-1.66242" y="232.739" width="4.15688" height="51.5353" filterUnits="userSpaceOnUse" color-interpolation-filters="sRGB">
<feFlood flood-opacity="0" result="BackgroundImageFix"/>
<feBlend mode="normal" in="SourceGraphic" in2="BackgroundImageFix" result="shape"/>
<feGaussianBlur stdDeviation="0.831212" result="effect1_foregroundBlur_159_7597"/>
</filter>
<filter id="filter12_f_159_7597" x="-0.828753" y="-3.32485" width="346.615" height="707.361" filterUnits="userSpaceOnUse" color-interpolation-filters="sRGB">
<feFlood flood-opacity="0" result="BackgroundImageFix"/>
<feBlend mode="normal" in="SourceGraphic" in2="BackgroundImageFix" result="shape"/>
<feGaussianBlur stdDeviation="1.66242" result="effect1_foregroundBlur_159_7597"/>
</filter>
<filter id="filter13_f_159_7597" x="0.83367" y="-1.66242" width="343.29" height="704.036" filterUnits="userSpaceOnUse" color-interpolation-filters="sRGB">
<feFlood flood-opacity="0" result="BackgroundImageFix"/>
<feBlend mode="normal" in="SourceGraphic" in2="BackgroundImageFix" result="shape"/>
<feGaussianBlur stdDeviation="0.831212" result="effect1_foregroundBlur_159_7597"/>
</filter>
<filter id="filter14_f_159_7597" x="4.98992" y="2.49383" width="334.977" height="694.893" filterUnits="userSpaceOnUse" color-interpolation-filters="sRGB">
<feFlood flood-opacity="0" result="BackgroundImageFix"/>
<feBlend mode="normal" in="SourceGraphic" in2="BackgroundImageFix" result="shape"/>
<feGaussianBlur stdDeviation="0.831212" result="effect1_foregroundBlur_159_7597"/>
</filter>
<filter id="filter15_f_159_7597" x="0.0018301" y="-2.49378" width="344.953" height="705.699" filterUnits="userSpaceOnUse" color-interpolation-filters="sRGB">
<feFlood flood-opacity="0" result="BackgroundImageFix"/>
<feBlend mode="normal" in="SourceGraphic" in2="BackgroundImageFix" result="shape"/>
<feGaussianBlur stdDeviation="2.90924" result="effect1_foregroundBlur_159_7597"/>
</filter>
<linearGradient id="paint0_linear_159_7597" x1="342.879" y1="286.768" x2="342.879" y2="283.028" gradientUnits="userSpaceOnUse">
<stop/>
<stop offset="1" stop-opacity="0"/>
</linearGradient>
<linearGradient id="paint1_linear_159_7597" x1="340.801" y1="286.768" x2="343.71" y2="286.768" gradientUnits="userSpaceOnUse">
<stop/>
<stop offset="1" stop-color="#AEAEAE" stop-opacity="0"/>
</linearGradient>
<linearGradient id="paint2_linear_159_7597" x1="342.879" y1="208.219" x2="342.879" y2="204.478" gradientUnits="userSpaceOnUse">
<stop stop-opacity="0"/>
<stop offset="1"/>
</linearGradient>
<linearGradient id="paint3_linear_159_7597" x1="2.07803" y1="123.85" x2="2.07803" y2="126.344" gradientUnits="userSpaceOnUse">
<stop/>
<stop offset="1" stop-opacity="0"/>
</linearGradient>
<linearGradient id="paint4_linear_159_7597" x1="4.15606" y1="123.85" x2="1.24682" y2="123.85" gradientUnits="userSpaceOnUse">
<stop/>
<stop offset="1" stop-color="#AEAEAE" stop-opacity="0"/>
</linearGradient>
<linearGradient id="paint5_linear_159_7597" x1="2.07803" y1="145.21" x2="2.07803" y2="149.618" gradientUnits="userSpaceOnUse">
<stop stop-opacity="0"/>
<stop offset="1"/>
</linearGradient>
<linearGradient id="paint6_linear_159_7597" x1="2.07803" y1="174.554" x2="2.07803" y2="177.879" gradientUnits="userSpaceOnUse">
<stop/>
<stop offset="1" stop-opacity="0"/>
</linearGradient>
<linearGradient id="paint7_linear_159_7597" x1="4.15606" y1="174.554" x2="1.24682" y2="174.554" gradientUnits="userSpaceOnUse">
<stop/>
<stop offset="1" stop-color="#AEAEAE" stop-opacity="0"/>
</linearGradient>
<linearGradient id="paint8_linear_159_7597" x1="2.07803" y1="217.777" x2="2.07803" y2="221.102" gradientUnits="userSpaceOnUse">
<stop stop-opacity="0"/>
<stop offset="1"/>
</linearGradient>
<linearGradient id="paint9_linear_159_7597" x1="2.07803" y1="234.402" x2="2.07803" y2="237.727" gradientUnits="userSpaceOnUse">
<stop/>
<stop offset="1" stop-opacity="0"/>
</linearGradient>
<linearGradient id="paint10_linear_159_7597" x1="4.15606" y1="234.402" x2="1.24682" y2="234.402" gradientUnits="userSpaceOnUse">
<stop/>
<stop offset="1" stop-color="#AEAEAE" stop-opacity="0"/>
</linearGradient>
<linearGradient id="paint11_linear_159_7597" x1="2.07803" y1="277.625" x2="2.07803" y2="280.95" gradientUnits="userSpaceOnUse">
<stop stop-opacity="0"/>
<stop offset="1"/>
</linearGradient>
<linearGradient id="paint12_linear_159_7597" x1="269.314" y1="0" x2="269.314" y2="3.32485" gradientUnits="userSpaceOnUse">
<stop stop-color="#525252"/>
<stop offset="1" stop-color="#666666"/>
</linearGradient>
<linearGradient id="paint13_linear_159_7597" x1="4.98973" y1="72.3154" x2="4.98973" y2="75.6403" gradientUnits="userSpaceOnUse">
<stop stop-color="#525252"/>
<stop offset="1" stop-color="#666666"/>
</linearGradient>
<linearGradient id="paint14_linear_159_7597" x1="2.49609" y1="630.89" x2="5.82094" y2="630.89" gradientUnits="userSpaceOnUse">
<stop stop-color="#525252"/>
<stop offset="1" stop-color="#666666"/>
</linearGradient>
<linearGradient id="paint15_linear_159_7597" x1="56.9374" y1="700.712" x2="56.9374" y2="697.387" gradientUnits="userSpaceOnUse">
<stop stop-color="#525252"/>
<stop offset="1" stop-color="#666666"/>
</linearGradient>
<linearGradient id="paint16_linear_159_7597" x1="342.462" y1="630.89" x2="339.137" y2="630.89" gradientUnits="userSpaceOnUse">
<stop stop-color="#525252"/>
<stop offset="1" stop-color="#666666"/>
</linearGradient>
<radialGradient id="paint17_radial_159_7597" cx="0" cy="0" r="1" gradientUnits="userSpaceOnUse" gradientTransform="translate(172.898 163.461) rotate(90) scale(284.314 318.473)">
<stop stop-color="#879194"/>
<stop offset="1"/>
</radialGradient>
<clipPath id="clip0_159_7597">
<path d="M344.957 285.937C344.957 286.855 344.213 287.599 343.295 287.599L340.801 287.599L340.801 204.478L343.295 204.478C344.213 204.478 344.957 205.222 344.957 206.14L344.957 285.937Z" fill="white"/>
</clipPath>
<clipPath id="clip1_159_7597">
<path d="M0 125.513C0 124.594 0.744292 123.85 1.66242 123.85H4.15606V149.618H1.66242C0.744292 149.618 0 148.873 0 147.955V125.513Z" fill="white"/>
</clipPath>
<clipPath id="clip2_159_7597">
<path d="M0 176.217C0 175.298 0.744292 174.554 1.66242 174.554H4.15606V221.102H1.66242C0.744292 221.102 0 220.358 0 219.44V176.217Z" fill="white"/>
</clipPath>
<clipPath id="clip3_159_7597">
<path d="M0 236.064C0 235.146 0.744292 234.402 1.66242 234.402H4.15606V280.95H1.66242C0.744292 280.95 0 280.205 0 279.287V236.064Z" fill="white"/>
</clipPath>
<clipPath id="clip4_159_7597">
<rect x="2.49609" width="339.966" height="700.711" rx="51.5351" fill="white"/>
</clipPath>
<clipPath id="clip5_159_7597">
<rect x="5.82031" y="3.32471" width="333.316" height="694.062" rx="48.2103" fill="white"/>
</clipPath>
<clipPath id="clip6_159_7597">
<rect x="12.4688" y="9.97412" width="320.017" height="680.762" rx="43.223" fill="white"/>
</clipPath>
</defs>
</svg>
